<svg width="24" height="24" viewBox="0 0 24 24" fill="none" xmlns="http://www.w3.org/2000/svg">
<path fill-rule="evenodd" clip-rule="evenodd" d="M10.676 18.8167C11.0534 18.9875 11.2209 19.4318 11.0501 19.8092C10.8539 20.2429 10.6393 20.6681 10.4065 21.0846C10.2045 21.4462 9.74753 21.5755 9.38595 21.3734C9.02438 21.1714 8.89507 20.7144 9.09715 20.3529C9.30935 19.9732 9.5048 19.5858 9.68354 19.1908C9.8543 18.8134 10.2987 18.6459 10.676 18.8167Z" fill="#77E7B7"/>
<path fill-rule="evenodd" clip-rule="evenodd" d="M11.9989 11.25C12.4131 11.2494 12.7494 11.5847 12.75 11.9989C12.7523 13.5796 12.5554 15.1542 12.1641 16.6857C12.0616 17.087 11.6531 17.3292 11.2518 17.2267C10.8505 17.1241 10.6083 16.7157 10.7108 16.3143C11.0709 14.9049 11.2521 13.4558 11.25 12.0011C11.2494 11.5869 11.5847 11.2506 11.9989 11.25Z" fill="#77E7B7"/>
<path fill-rule="evenodd" clip-rule="evenodd" d="M16.4991 11.25C16.9133 11.2495 17.2495 11.5849 17.25 11.9991C17.2536 15.0297 16.6631 18.0315 15.5119 20.8349C15.3546 21.2181 14.9164 21.4011 14.5332 21.2438C14.1501 21.0864 13.967 20.6483 14.1243 20.2651C15.2011 17.6431 15.7534 14.8354 15.75 12.0009C15.7495 11.5867 16.0849 11.2505 16.4991 11.25Z" fill="#0D5DA6"/>
<path fill-rule="evenodd" clip-rule="evenodd" d="M10.1267 7.09527C11.1201 6.71586 12.2052 6.64703 13.2385 6.89787C14.2718 7.14872 15.2046 7.70743 15.9134 8.50005C16.1896 8.80881 16.1631 9.28295 15.8543 9.55906C15.5456 9.83518 15.0714 9.80871 14.7953 9.49995C14.289 8.93379 13.6227 8.53471 12.8847 8.35554C12.1466 8.17636 11.3715 8.22553 10.662 8.49653C9.95243 8.76754 9.34192 9.24761 8.91123 9.8732C8.4806 10.4987 8.25002 11.2402 8.25 11.9996C8.25276 14.4141 7.63955 16.7895 6.46836 18.901C6.26745 19.2632 5.81093 19.394 5.44871 19.1931C5.08649 18.9921 4.95572 18.5356 5.15664 18.1734C6.20413 16.2849 6.75254 14.1604 6.75 12.0009L6.75 12.0001C6.74993 10.9367 7.07274 9.89844 7.67572 9.0226C8.27869 8.14677 9.13341 7.47468 10.1267 7.09527Z" fill="#0D5DA6"/>
<path fill-rule="evenodd" clip-rule="evenodd" d="M5.33748 5.66821C7.16596 3.83973 9.64591 2.8125 12.2318 2.8125C14.8176 2.8125 17.2976 3.83973 19.1261 5.66821C20.9544 7.4966 21.9817 9.9764 21.9818 12.5621C21.9827 14.3732 21.8072 16.1801 21.4577 17.9572C21.3777 18.3637 20.9835 18.6283 20.577 18.5484C20.1706 18.4685 19.9059 18.0742 19.9859 17.6678C20.3165 15.9863 20.4826 14.2766 20.4818 12.5629V12.5625C20.4818 10.3745 19.6126 8.27604 18.0654 6.72887C16.5182 5.18169 14.4198 4.3125 12.2318 4.3125C10.0437 4.3125 7.94531 5.18169 6.39814 6.72887C4.85104 8.27597 3.98185 10.3743 3.98177 12.5622C3.98278 13.6693 3.79487 14.7684 3.42613 15.8123C3.28817 16.2029 2.85971 16.4076 2.46915 16.2697C2.07859 16.1317 1.87382 15.7033 2.01178 15.3127C2.32372 14.4296 2.48266 13.4998 2.48177 12.5632L2.48177 12.5625C2.48177 9.97664 3.509 7.49669 5.33748 5.66821Z" fill="#0D5DA6"/>
</svg>
