<svg width="17" height="16" viewBox="0 0 17 16" fill="none" xmlns="http://www.w3.org/2000/svg">
<path d="M14.1666 10.0666C14.0084 9.988 13.8254 9.97545 13.6579 10.0317C13.4904 10.088 13.352 10.2084 13.2733 10.3666C12.8513 11.2187 12.2092 11.9426 11.4135 12.4631C10.6177 12.9837 9.69729 13.282 8.74748 13.3272C7.79766 13.3724 6.85303 13.1629 6.01143 12.7203C5.16982 12.2777 4.46185 11.6182 3.96084 10.81C3.45983 10.0018 3.184 9.07435 3.16193 8.12371C3.13986 7.17308 3.37235 6.23384 3.83531 5.40326C4.29827 4.57269 4.97487 3.88099 5.79503 3.39982C6.61519 2.91865 7.54908 2.6655 8.49996 2.66659C9.49404 2.66229 10.4692 2.93835 11.3135 3.46309C12.1578 3.98784 12.8371 4.74 13.2733 5.63326C13.3529 5.79239 13.4924 5.91339 13.6612 5.96965C13.8299 6.02592 14.0142 6.01282 14.1733 5.93326C14.3324 5.85369 14.4534 5.71417 14.5097 5.54539C14.566 5.37661 14.5529 5.19239 14.4733 5.03326C13.8044 3.68709 12.7001 2.6065 11.3398 1.96688C9.97944 1.32726 8.44286 1.16615 6.97943 1.50971C5.51601 1.85327 4.21164 2.68132 3.27805 3.85947C2.34445 5.03762 1.83643 6.49671 1.83643 7.99992C1.83643 9.50313 2.34445 10.9622 3.27805 12.1404C4.21164 13.3185 5.51601 14.1466 6.97943 14.4901C8.44286 14.8337 9.97944 14.6726 11.3398 14.033C12.7001 13.3934 13.8044 12.3128 14.4733 10.9666C14.513 10.8875 14.5366 10.8013 14.5427 10.713C14.5487 10.6247 14.5372 10.5361 14.5086 10.4523C14.4801 10.3685 14.4351 10.2913 14.3764 10.2251C14.3177 10.1588 14.2464 10.105 14.1666 10.0666ZM14.5 7.33326H8.10663L9.63996 5.80659C9.70212 5.74443 9.75143 5.67064 9.78507 5.58942C9.81871 5.50821 9.83602 5.42116 9.83602 5.33326C9.83602 5.24535 9.81871 5.15831 9.78507 5.07709C9.75143 4.99588 9.70212 4.92208 9.63996 4.85992C9.5778 4.79777 9.50401 4.74846 9.4228 4.71482C9.34158 4.68118 9.25454 4.66386 9.16663 4.66386C9.07872 4.66386 8.99168 4.68118 8.91046 4.71482C8.82925 4.74846 8.75546 4.79777 8.6933 4.85992L6.02663 7.52659C5.96594 7.58999 5.91836 7.66476 5.88663 7.74659C5.81995 7.9089 5.81995 8.09095 5.88663 8.25326C5.91836 8.33509 5.96594 8.40986 6.02663 8.47326L8.6933 11.1399C8.75527 11.2024 8.82901 11.252 8.91025 11.2859C8.99149 11.3197 9.07862 11.3371 9.16663 11.3371C9.25464 11.3371 9.34177 11.3197 9.42301 11.2859C9.50425 11.252 9.57799 11.2024 9.63996 11.1399C9.70245 11.0779 9.75205 11.0042 9.78589 10.923C9.81974 10.8417 9.83716 10.7546 9.83716 10.6666C9.83716 10.5786 9.81974 10.4914 9.78589 10.4102C9.75205 10.329 9.70245 10.2552 9.63996 10.1933L8.10663 8.66659H14.5C14.6768 8.66659 14.8463 8.59635 14.9714 8.47133C15.0964 8.3463 15.1666 8.17674 15.1666 7.99992C15.1666 7.82311 15.0964 7.65354 14.9714 7.52852C14.8463 7.4035 14.6768 7.33326 14.5 7.33326Z" fill="white"/>
</svg>
