<svg width="48" height="48" viewBox="0 0 48 48" fill="none" xmlns="http://www.w3.org/2000/svg">
<rect width="48" height="48" fill="white"/>
<path fill-rule="evenodd" clip-rule="evenodd" d="M17.7929 9.76714C17.493 10.0671 17.493 10.5533 17.7929 10.8533L19.4221 12.4824C19.722 12.7824 20.2083 12.7824 20.5082 12.4824L24.0415 8.94914L27.5748 12.4824C27.8747 12.7824 28.361 12.7824 28.6609 12.4824L30.2901 10.8533C30.59 10.5533 30.59 10.0671 30.2901 9.76714L24.588 4.06503C24.4372 3.9142 24.2392 3.83922 24.0415 3.8401C23.8438 3.83922 23.6459 3.9142 23.495 4.06503L17.7929 9.76714Z" fill="#0D5DA6"/>
<path fill-rule="evenodd" clip-rule="evenodd" d="M9.76702 30.2902C10.0669 30.5901 10.5532 30.5901 10.8531 30.2902L12.4823 28.661C12.7822 28.3611 12.7822 27.8748 12.4823 27.5749L8.94902 24.0416L12.4823 20.5083C12.7822 20.2084 12.7822 19.7221 12.4823 19.4222L10.8531 17.793C10.5532 17.4931 10.0669 17.4931 9.76702 17.793L4.06491 23.4951C3.91408 23.646 3.8391 23.8439 3.83997 24.0416C3.8391 24.2393 3.91408 24.4373 4.06491 24.5881L9.76702 30.2902Z" fill="#0D5DA6"/>
<path fill-rule="evenodd" clip-rule="evenodd" d="M38.2329 17.7931C37.9329 17.4931 37.4467 17.4931 37.1467 17.7931L35.5176 19.4222C35.2176 19.7222 35.2176 20.2084 35.5176 20.5083L39.0509 24.0416L35.5176 27.5749C35.2176 27.8748 35.2176 28.3611 35.5176 28.661L37.1467 30.2902C37.4467 30.5901 37.9329 30.5901 38.2329 30.2902L43.935 24.5881C44.0858 24.4373 44.1608 24.2393 44.1599 24.0416C44.1608 23.844 44.0858 23.646 43.935 23.4952L38.2329 17.7931Z" fill="#0D5DA6"/>
<path fill-rule="evenodd" clip-rule="evenodd" d="M17.7929 38.2331C17.493 37.9332 17.493 37.4469 17.7929 37.147L19.4221 35.5178C19.722 35.2179 20.2083 35.2179 20.5082 35.5178L24.0415 39.0511L27.5748 35.5178C27.8747 35.2179 28.361 35.2179 28.6609 35.5178L30.2901 37.147C30.59 37.4469 30.59 37.9332 30.2901 38.2331L24.588 43.9352C24.4372 44.086 24.2392 44.161 24.0415 44.1601C23.8438 44.161 23.6459 44.086 23.495 43.9352L17.7929 38.2331Z" fill="#0D5DA6"/>
<path d="M16.3046 12.5032C16.5296 12.2783 16.8335 12.2175 16.9834 12.3675L21.871 17.255C22.0209 17.405 21.9601 17.7089 21.7352 17.9338L20.5133 19.1557C20.2884 19.3806 19.9845 19.4414 19.8345 19.2915L14.947 14.4039C14.797 14.254 14.8578 13.9501 15.0827 13.7251L16.3046 12.5032Z" fill="#ACDEFB"/>
<path d="M13.7252 15.0828C13.9501 14.8579 14.254 14.7971 14.404 14.9471L19.2915 19.8346C19.4415 19.9845 19.3807 20.2885 19.1557 20.5134L17.9339 21.7353C17.7089 21.9602 17.405 22.021 17.255 21.8711L12.3675 16.9835C12.2175 16.8336 12.2783 16.5297 12.5033 16.3047L13.7252 15.0828Z" fill="#ACDEFB"/>
<path d="M31.7579 12.5032C31.5329 12.2783 31.229 12.2175 31.0791 12.3675L26.1915 17.255C26.0416 17.405 26.1024 17.7089 26.3273 17.9338L27.5492 19.1557C27.7741 19.3806 28.078 19.4414 28.228 19.2915L33.1155 14.4039C33.2655 14.254 33.2047 13.9501 32.9798 13.7251L31.7579 12.5032Z" fill="#ACDEFB"/>
<path d="M34.3375 15.0828C34.1125 14.8579 33.8086 14.7971 33.6586 14.9471L28.7711 19.8346C28.6212 19.9845 28.6819 20.2885 28.9069 20.5134L30.1288 21.7353C30.3537 21.9602 30.6576 22.021 30.8076 21.8711L35.6951 16.9835C35.8451 16.8336 35.7843 16.5297 35.5593 16.3047L34.3375 15.0828Z" fill="#ACDEFB"/>
<path d="M17.9338 26.3272C17.7088 26.1023 17.4049 26.0415 17.255 26.1915L12.3674 31.079C12.2175 31.2289 12.2783 31.5329 12.5032 31.7578L13.7251 32.9797C13.95 33.2046 14.2539 33.2654 14.4039 33.1154L19.2914 28.2279C19.4414 28.078 19.3806 27.774 19.1557 27.5491L17.9338 26.3272Z" fill="#ACDEFB"/>
<path d="M20.5133 28.9068C20.2883 28.6819 19.9844 28.6211 19.8344 28.771L14.9469 33.6586C14.7969 33.8085 14.8577 34.1124 15.0827 34.3374L16.3046 35.5593C16.5295 35.7842 16.8334 35.845 16.9834 35.695L21.8709 30.8075C22.0209 30.6575 21.9601 30.3536 21.7351 30.1287L20.5133 28.9068Z" fill="#ACDEFB"/>
<path d="M30.1286 26.3272C30.3535 26.1023 30.6575 26.0415 30.8074 26.1915L35.6949 31.079C35.8449 31.2289 35.7841 31.5329 35.5592 31.7578L34.3373 32.9797C34.1124 33.2046 33.8084 33.2654 33.6585 33.1154L28.771 28.2279C28.621 28.078 28.6818 27.774 28.9067 27.5491L30.1286 26.3272Z" fill="#ACDEFB"/>
<path d="M27.5491 28.9068C27.7741 28.6819 28.078 28.6211 28.2279 28.771L33.1155 33.6586C33.2654 33.8085 33.2046 34.1124 32.9797 34.3374L31.7578 35.5593C31.5329 35.7842 31.229 35.845 31.079 35.695L26.1915 30.8075C26.0415 30.6575 26.1023 30.3536 26.3272 30.1287L27.5491 28.9068Z" fill="#ACDEFB"/>
<path d="M19.1125 24.5431C18.8126 24.2431 18.8126 23.7569 19.1125 23.4569L23.457 19.1125C23.7569 18.8126 24.2432 18.8126 24.5431 19.1125L28.8876 23.4569C29.1875 23.7569 29.1875 24.2431 28.8876 24.5431L24.5431 28.8875C24.2432 29.1874 23.7569 29.1874 23.457 28.8875L19.1125 24.5431Z" fill="#77E7B7"/>
</svg>
